<?xml version="1.0" standalone="no"?>
<!DOCTYPE svg PUBLIC "-//W3C//DTD SVG 1.1//EN" "http://www.w3.org/Graphics/SVG/1.1/DTD/svg11.dtd" >
<svg xmlns="http://www.w3.org/2000/svg">
<metadata></metadata>
<defs>
<font id="avenirnextw10-demiitalicRg" horiz-adv-x="1249" >
<font-face units-per-em="2048" ascent="1565" descent="-483" />
<missing-glyph horiz-adv-x="512" />
<glyph horiz-adv-x="2048" />
<glyph horiz-adv-x="2048" />
<glyph unicode="&#xd;" horiz-adv-x="0" />
<glyph unicode=" "  horiz-adv-x="512" />
<glyph unicode="&#x09;" horiz-adv-x="512" />
<glyph unicode="&#xa0;" horiz-adv-x="512" />
<glyph unicode="!" horiz-adv-x="604" d="M80 139q0 68 47 112t109 44t103 -40q42 -41 42 -108q0 -62 -44 -109q-43 -46 -108 -46q-61 0 -105 38t-44 109zM152 453l176 997h239l-176 -997h-239z" />
<glyph unicode="&#x22;" horiz-adv-x="921" d="M207 911l96 539h205l-96 -539h-205zM567 911l95 539h204l-94 -539h-205z" />
<glyph unicode="#" horiz-adv-x="1208" d="M59 428l31 170h207l82 254h-184l28 170h209l137 428h176l-135 -428h213l138 428h176l-138 -428h185l-31 -170h-209l-80 -254h185l-29 -170h-205l-139 -428h-176l137 428h-215l-137 -428h-176l137 428h-187zM475 598h213l82 254h-215z" />
<glyph unicode="$" d="M43 203l197 139q39 -66 112 -111q74 -45 156 -45l80 461q-71 22 -131 52q-66 33 -111 78q-48 48 -76 107t-28 140q0 98 33 175q33 79 98 140q63 60 154 96q90 35 206 40l27 147h102l-26 -149q117 -10 209 -54q95 -45 145 -114l-182 -146q-35 46 -85 76q-52 32 -122 33 l-76 -424q84 -33 155 -73q64 -36 111 -85q45 -46 69 -107q23 -58 23 -141q0 -96 -34 -174t-102 -140q-67 -61 -161 -98q-97 -39 -213 -46l-26 -152h-103l27 152q-128 6 -246 59q-115 52 -182 164zM479 1055q0 -69 37 -110t113 -68l67 389q-90 -6 -154 -59q-63 -53 -63 -152z M608 186q103 6 167 67q63 60 63 159q0 81 -40 125q-40 45 -112 73z" />
<glyph unicode="%" horiz-adv-x="1849" d="M145 1044q0 89 32 168q31 78 89 137q55 56 134 92q75 34 169 34q74 0 134 -24q61 -24 104 -66q41 -40 66 -100q24 -59 24 -126q0 -90 -32 -171q-31 -78 -87 -137q-54 -57 -132 -92q-75 -34 -169 -34q-69 0 -133 25q-62 24 -105 67q-46 46 -69 102q-25 61 -25 125zM317 12 l1121 1504l127 -80l-1121 -1504zM342 1069q0 -67 40 -114q40 -48 110 -48q94 0 152 64q56 62 56 159q0 67 -40 114q-40 48 -111 48q-93 0 -150 -63t-57 -160zM983 297q0 89 32 168q31 76 89 136q55 56 134 92q75 34 169 34q74 0 134 -24q63 -25 104 -65t66 -100 q24 -58 24 -126q0 -90 -32 -171q-31 -79 -87 -138q-54 -57 -132 -92q-75 -34 -169 -34q-69 0 -133 25q-62 24 -106 68q-45 45 -68 101q-25 61 -25 126zM1180 322q0 -67 40 -114q40 -48 109 -48q96 0 153 63q56 62 56 160q0 67 -40 114q-40 48 -112 48q-91 0 -149 -64 q-57 -63 -57 -159z" />
<glyph unicode="&#x26;" horiz-adv-x="1513" d="M53 360q0 84 31 158q29 69 83 128q51 55 124 98q78 45 151 73q-40 60 -66 129q-26 70 -26 148q0 89 32 162t86 124q55 52 128 79q76 28 158 28q78 0 149 -23q73 -24 120 -65q50 -44 80 -105q30 -62 30 -141q0 -137 -99 -233q-101 -98 -266 -170l193 -234l176 250h290 l-323 -412l301 -354h-299l-143 182q-118 -118 -232 -165q-111 -46 -229 -46q-94 0 -180 25q-81 24 -142 74q-58 48 -93 121q-34 71 -34 169zM303 381q0 -43 18 -80t47 -62q30 -26 69 -40q41 -15 85 -15q91 0 161 43q72 45 134 121l-254 309q-48 -16 -101 -43 q-49 -25 -83 -57q-33 -32 -55 -77q-21 -44 -21 -99zM575 1106q0 -51 25 -112q23 -57 57 -95q51 18 97 44q42 24 79 56q32 27 53 67q19 35 19 77q0 67 -39 108t-108 41q-82 0 -132 -53q-51 -54 -51 -133z" />
<glyph unicode="'" horiz-adv-x="561" d="M207 911l94 539h205l-94 -539h-205z" />
<glyph unicode="(" horiz-adv-x="655" d="M45 358q0 291 117 579t364 562l150 -110q-111 -124 -188 -250q-77 -124 -131 -261q-50 -126 -77 -264q-26 -133 -26 -254q0 -154 36 -308q36 -156 101 -281l-184 -88q-78 141 -120 314t-42 361z" />
<glyph unicode=")" horiz-adv-x="655" d="M-35 -205q110 122 187 249q80 131 132 262q50 127 77 263q26 133 26 254q0 154 -36 309q-36 156 -101 281l184 88q78 -141 120 -314t42 -362q0 -290 -117 -578t-364 -562z" />
<glyph unicode="*" horiz-adv-x="946" d="M141 1098l52 153l284 -98v297h162v-297l281 92l51 -153l-285 -93l178 -243l-133 -97l-178 246l-174 -239l-129 96l178 237z" />
<glyph unicode="+" horiz-adv-x="1363" d="M127 516v209h451v451h208v-451h451v-209h-451v-450h-208v450h-451z" />
<glyph unicode="," horiz-adv-x="532" d="M-104 -260l237 539h234l-269 -539h-202z" />
<glyph unicode="-" horiz-adv-x="655" d="M43 401l37 205h489l-37 -205h-489z" />
<glyph unicode="." horiz-adv-x="532" d="M25 139q0 68 47 112t108 44q63 0 104 -40q42 -41 42 -108q0 -62 -44 -109q-43 -46 -108 -46q-61 0 -105 38t-44 109z" />
<glyph unicode="/" horiz-adv-x="794" d="M-133 -35l917 1583l156 -63l-917 -1581z" />
<glyph unicode="0" d="M106 453q0 106 15 224q15 121 46 232q31 112 83 219q52 106 123 185q74 82 166 127q96 47 213 47q115 0 195 -40q82 -41 131 -109q51 -71 74 -159q24 -91 24 -192q0 -100 -14 -221q-13 -112 -44 -230q-30 -113 -80 -218q-50 -104 -119 -182q-71 -80 -165 -126 q-96 -47 -215 -47q-115 0 -197 39t-134 104q-53 67 -77 155q-25 92 -25 192zM354 498q0 -64 11 -127q11 -64 33 -105q24 -44 63 -70q40 -26 94 -26q83 0 150 69q66 68 116 179q49 109 76 252q27 141 27 286q0 60 -10 127q-9 61 -31 105t-60 70t-92 26q-84 0 -153 -69 q-70 -70 -119 -180q-50 -112 -77 -253q-28 -146 -28 -284z" />
<glyph unicode="1" d="M223 1106l502 344h233l-256 -1450h-241l205 1157l-328 -235z" />
<glyph unicode="2" d="M29 0l39 221l647 543q121 102 166 174q47 74 47 149q0 93 -56 144t-159 51q-98 0 -170 -60q-73 -61 -107 -171l-221 63q68 187 206 280t308 93q106 0 190 -29q81 -28 140 -79q58 -50 88 -121q31 -73 31 -152q0 -82 -23 -149q-23 -66 -66 -126q-39 -54 -107 -117 q-62 -58 -142 -124l-449 -369h639l-39 -221h-962z" />
<glyph unicode="3" d="M51 283l228 71q22 -89 89 -136q65 -46 167 -46q135 0 205 69q71 69 71 181q0 65 -27 112t-69 73q-46 29 -100 40q-57 12 -113 12h-62l33 193h70q177 0 256 70q78 69 78 186q0 76 -53 127q-52 51 -144 51q-95 0 -156 -43q-60 -43 -104 -121l-180 109q73 130 193 193 t267 63q85 0 161 -26q75 -25 132 -72q56 -46 90 -117q33 -69 33 -156q0 -83 -25 -143q-25 -61 -67 -106q-41 -44 -93 -71q-56 -29 -108 -40v-4q108 -24 173 -110t65 -196q0 -113 -41 -204q-41 -90 -113 -152q-71 -61 -171 -94q-99 -33 -216 -33q-180 0 -301 84t-168 236z " />
<glyph unicode="4" d="M-10 303l39 223l759 924h308l-166 -940h205l-37 -207h-199l-51 -303h-234l52 303h-676zM274 510h424l123 684h-8z" />
<glyph unicode="5" d="M41 254l219 90q27 -79 93 -125q67 -47 161 -47q73 0 130 24t94 64q38 41 59 98q20 54 20 123q0 67 -24 117t-65 80q-43 32 -91 46q-51 15 -107 15q-81 0 -164 -23q-86 -24 -161 -65l157 799h775l-43 -215h-557l-70 -317q35 9 72 13q48 5 82 5q75 0 154 -24 q81 -24 144 -73q65 -49 105 -132q41 -84 41 -199q0 -141 -46 -242q-47 -103 -123 -170t-174 -100t-200 -33q-90 0 -170 23q-79 23 -140 62q-66 42 -107 92q-43 51 -64 114z" />
<glyph unicode="6" d="M43 403q0 109 48 220q47 109 159 245l475 582h293l-467 -549l2 -4q14 5 46 10q24 4 52 4q109 0 189 -32q82 -33 137 -89q55 -57 84 -131q29 -75 29 -155q0 -107 -38 -207q-37 -97 -110 -172q-74 -76 -176 -118q-106 -44 -240 -44q-101 0 -192 31q-88 30 -153 87 q-64 57 -101 138t-37 184zM287 403q0 -58 20 -99q23 -47 55 -75q35 -31 80 -47q44 -16 95 -16q144 0 226 88q83 89 83 233q0 58 -21 103q-23 48 -53 76q-35 32 -76 46q-44 15 -88 15q-72 0 -134 -25q-60 -24 -101 -68q-42 -45 -64 -104t-22 -127z" />
<glyph unicode="7" d="M61 0l867 1233h-697l37 217h963l-39 -221l-830 -1229h-301z" />
<glyph unicode="8" d="M104 362q0 80 28 153q27 69 76 125q49 55 110 90q63 36 131 48v6q-73 38 -123 108q-50 71 -50 165q0 109 41 191q40 80 108 134q67 53 153 79q87 26 176 26q76 0 149 -21q75 -22 131 -64q57 -43 92 -112q35 -68 35 -160q0 -85 -25 -147q-25 -63 -68 -110q-40 -44 -94 -75 q-50 -28 -104 -46l5 -7q91 -30 153 -111q62 -82 62 -192q0 -106 -41 -196q-41 -89 -113 -152q-71 -62 -171 -97q-98 -34 -216 -34q-71 0 -153 20q-78 19 -143 66t-107 123t-42 190zM338 387q0 -61 19 -100q19 -40 52 -68q31 -27 72 -39t84 -12q141 0 216 79t75 195 q0 104 -62 160q-63 57 -161 57q-69 0 -120 -20q-56 -22 -93 -56q-40 -37 -61 -86t-21 -110zM502 1051q0 -82 52 -131q53 -50 138 -50q45 0 91 16q43 15 77 44q33 28 52 71q20 45 20 99q0 87 -56 133q-58 47 -143 47q-106 0 -169 -66q-62 -65 -62 -163z" />
<glyph unicode="9" d="M172 946q0 107 38 207q38 99 109 172q74 75 177 118q106 44 239 44q102 0 193 -31q87 -29 152 -87q66 -58 102 -138q37 -81 37 -184q0 -107 -49 -220q-48 -111 -158 -245l-475 -582h-293l467 549l-2 4q-14 -5 -46 -10q-24 -4 -53 -4q-108 0 -188 32q-82 33 -137 89 q-55 57 -84 131q-29 75 -29 155zM416 963q0 -60 20 -103q23 -48 53 -76q35 -32 76 -46q43 -15 88 -15q71 0 134 25q62 25 102 68t63 104t23 127q0 55 -21 99q-23 47 -55 75q-35 31 -80 47q-44 16 -94 16q-144 0 -226 -88q-83 -89 -83 -233z" />
<glyph unicode=":" horiz-adv-x="614" d="M72 139q0 68 47 112t108 44q63 0 104 -40q42 -41 42 -108q0 -62 -44 -109q-43 -46 -108 -46q-61 0 -105 38t-44 109zM188 838q0 66 48 111q47 44 108 44q62 0 103 -40q42 -41 42 -107q0 -63 -44 -110q-43 -46 -107 -46q-62 0 -106 38t-44 110z" />
<glyph unicode=";" horiz-adv-x="614" d="M-76 -260l238 539h244l-269 -539h-213zM188 838q0 66 48 111q47 44 108 44q62 0 103 -40q42 -41 42 -107q0 -63 -44 -110q-43 -46 -107 -46q-62 0 -106 38t-44 110z" />
<glyph unicode="&#x3c;" horiz-adv-x="1363" d="M164 547v147l1036 461v-225l-692 -309l692 -310v-225z" />
<glyph unicode="=" horiz-adv-x="1363" d="M164 332v209h1036v-209h-1036zM164 700v209h1036v-209h-1036z" />
<glyph unicode="&#x3e;" horiz-adv-x="1363" d="M164 86v225l692 310l-692 309v225l1036 -461v-147z" />
<glyph unicode="?" horiz-adv-x="1058" d="M186 1092q17 77 61 153q42 73 106 126q66 55 149 85q87 31 184 31q79 0 154 -20t130 -62t89 -113q33 -69 33 -170q0 -62 -18 -115q-20 -58 -51 -100q-37 -49 -84 -91q-50 -44 -116 -89q-61 -43 -80 -58q-30 -23 -54 -54q-23 -29 -34 -59q-12 -31 -18 -77l-8 -53h-236 l13 80q7 48 21 89q13 41 36 75t55 67q30 30 78 70l106 84q40 32 48 39q27 23 44 46t32 57q14 33 14 71q0 164 -183 164q-49 0 -90 -18t-70 -47q-31 -31 -51 -68q-20 -38 -28 -82zM332 139q0 68 47 112t108 44q63 0 104 -40q42 -41 42 -108q0 -62 -44 -109q-43 -46 -108 -46 q-61 0 -105 38t-44 109z" />
<glyph unicode="@" horiz-adv-x="1638" d="M68 598q0 178 66 340q67 164 184 284q118 121 281 193t355 72q154 0 278 -39q123 -38 210 -112q86 -73 133 -178q47 -106 47 -238q0 -131 -41 -240q-39 -104 -111 -187q-67 -77 -161 -122q-90 -43 -193 -43q-84 0 -125 39q-40 39 -33 98h-8q-34 -51 -100 -94 q-65 -43 -156 -43q-118 0 -187 63t-69 178q0 91 35 191q33 96 98 179q61 79 151 133q86 52 189 52q79 0 133 -32q57 -34 64 -80h2l31 82h180l-150 -387q-4 -10 -12.5 -35t-13.5 -40q-17 -48 -17 -77q0 -34 11 -48q10 -13 45 -13q53 0 97 33q47 35 81 93q35 59 54 134 q20 78 20 159q0 97 -36 174q-35 73 -100 128q-64 54 -151 80q-92 28 -193 28q-163 0 -288 -59q-128 -60 -216 -159q-92 -103 -137 -228q-47 -130 -47 -267q0 -113 38 -204q37 -89 109 -152q70 -61 171 -94q100 -33 223 -33q147 0 270 50q121 49 226 138l88 -120 q-112 -111 -272 -171q-162 -61 -339 -61q-173 0 -305 46q-133 46 -224 130t-138 201q-47 118 -47 258zM641 614q0 -44 24 -82q23 -36 89 -36q55 0 100 32q49 35 82 82q33 48 55 108q21 58 21 111q0 55 -24 93q-23 36 -93 36q-45 0 -90 -30q-43 -29 -82 -80q-36 -47 -59 -111 q-23 -63 -23 -123z" />
<glyph unicode="A" horiz-adv-x="1368" d="M-178 0l946 1450h219l289 -1450h-268l-60 334h-620l-207 -334h-299zM451 551h462l-96 608z" />
<glyph unicode="B" horiz-adv-x="1323" d="M51 0l256 1450h504q78 0 151 -16t135 -55q60 -38 98 -98q38 -61 38 -148q0 -147 -88 -241q-90 -96 -232 -130v-4q117 -18 195 -100q76 -80 76 -209q0 -112 -46 -195t-128 -140q-82 -56 -196 -85q-116 -29 -249 -29h-514zM336 213h252q70 0 129 13q61 13 109 42 q49 29 76 77q28 50 28 116q0 85 -64 134q-63 48 -182 48h-274zM449 854h262q47 0 91 11q50 12 88 38q39 26 65 70t26 104q0 89 -67 127q-65 37 -166 37h-230z" />
<glyph unicode="C" horiz-adv-x="1394" d="M98 586q0 188 66 352q67 166 181 286q116 122 271 192q157 71 336 71q78 0 155 -17q74 -16 139 -45q66 -29 116 -69q51 -40 84 -90l-199 -150q-20 29 -43 52q-32 32 -65 51t-87 36q-48 15 -108 15q-127 0 -236 -56t-185 -147t-120 -209q-43 -116 -43 -240q0 -86 28 -168 q27 -79 80 -138t130 -93q79 -35 178 -35q108 0 207 45q96 44 176 142l162 -144q-43 -55 -100 -103t-129 -84q-68 -34 -158 -56q-86 -21 -189 -21q-145 0 -264 45q-118 45 -203 127q-87 84 -133 197q-47 115 -47 254z" />
<glyph unicode="D" horiz-adv-x="1550" d="M51 0l256 1450h496q124 0 244 -34q122 -35 217 -106q93 -70 155 -189q60 -115 60 -277q0 -188 -67 -346q-66 -155 -185 -267q-118 -111 -281 -171q-162 -60 -352 -60h-543zM340 221h264q153 0 266 49q117 51 192 132q76 82 116 189q39 105 39 220q0 85 -29 164 q-28 78 -87 135q-57 56 -148 91q-87 34 -212 34h-223z" />
<glyph unicode="E" horiz-adv-x="1196" d="M51 0l256 1450h914l-39 -221h-668l-65 -375h636l-38 -213h-635l-74 -416h725l-39 -225h-973z" />
<glyph unicode="F" horiz-adv-x="1138" d="M51 0l256 1450h897l-39 -221h-645l-71 -402h606l-37 -213h-606l-109 -614h-252z" />
<glyph unicode="G" horiz-adv-x="1515" d="M98 586q0 188 66 352q67 166 181 286q116 122 271 192q157 71 336 71q160 0 296 -54q135 -53 218 -167l-198 -150q-47 67 -126 110q-80 44 -198 44q-127 0 -236 -56t-185 -147t-120 -209q-43 -116 -43 -240q0 -94 30 -174t87 -137t140 -90t188 -33q70 1 142 15 q60 11 122 41l64 368h-312l41 219h555l-129 -749q-113 -55 -245 -84q-141 -31 -275 -31q-150 0 -275 45t-211 127q-88 84 -136 197q-48 114 -48 254z" />
<glyph unicode="H" horiz-adv-x="1492" d="M51 0l256 1450h252l-104 -588h665l105 588h252l-256 -1450h-252l112 645h-663l-115 -645h-252z" />
<glyph unicode="I" horiz-adv-x="595" d="M51 0l256 1450h252l-256 -1450h-252z" />
<glyph unicode="J" horiz-adv-x="1024" d="M-49 281l235 67q7 -67 52 -115q44 -47 112 -47q59 0 101 22q41 21 68 60q28 40 44 92q16 51 27 115l172 975h254l-174 -983q-15 -85 -42 -173t-82 -163t-141 -121q-88 -47 -221 -47q-174 0 -280 88q-107 89 -125 230z" />
<glyph unicode="K" horiz-adv-x="1323" d="M51 0l256 1450h250l-115 -643h7l653 643h340l-752 -684l563 -766h-329l-490 729h-6l-127 -729h-250z" />
<glyph unicode="L" horiz-adv-x="1046" d="M51 0l256 1450h252l-217 -1225h621l-39 -225h-873z" />
<glyph unicode="M" horiz-adv-x="1884" d="M51 0l256 1450h393l197 -1038h4l567 1038h400l-254 -1450h-250l209 1169h-6l-654 -1169h-176l-235 1169h-4l-207 -1169h-240z" />
<glyph unicode="N" horiz-adv-x="1613" d="M51 0l256 1450h328l467 -1092h4l192 1092h252l-256 -1450h-313l-475 1126h-4l-199 -1126h-252z" />
<glyph unicode="O" horiz-adv-x="1697" d="M98 592q0 183 65 348q65 164 177 285q111 119 266 191q154 71 334 71q155 0 282 -44q125 -43 216 -125q89 -80 139 -198q49 -116 49 -262q0 -187 -62 -348q-64 -165 -173 -285q-109 -119 -263 -191q-153 -71 -331 -71q-161 0 -289 43q-130 44 -220 125q-92 83 -141 199 t-49 262zM358 618q0 -87 29 -168q29 -80 84 -138q56 -59 137 -93q84 -35 189 -35q136 0 242 56q108 57 179 147q73 92 110 209q38 119 38 240q0 87 -29 168q-29 80 -84 138q-56 59 -137 93q-84 35 -188 35q-131 0 -237 -56t-179 -147t-114 -209q-40 -116 -40 -240z" />
<glyph unicode="P" horiz-adv-x="1247" d="M51 0l256 1450h436q240 0 367 -100t127 -281q0 -121 -44 -211q-43 -87 -125 -145q-81 -57 -194 -84q-112 -27 -247 -27h-219l-107 -602h-250zM444 815h193q81 0 140 11q68 13 110 38q45 27 70 70q26 44 26 108q0 60 -20 96q-22 39 -58 59q-40 23 -88 31q-51 9 -112 9 h-185z" />
<glyph unicode="Q" horiz-adv-x="1677" d="M98 614q0 180 64 342q63 158 175 278q109 116 262 185q151 68 325 68q150 0 271 -42q122 -42 210 -121t136 -191t48 -254q0 -151 -35 -264q-35 -112 -87 -191q-55 -83 -111 -132q-63 -55 -109 -83v-4h352l-36 -205h-799q-148 0 -270 43t-211 123q-90 81 -137 193 q-48 114 -48 255zM356 641q0 -84 28 -163q27 -76 80 -134q53 -57 130 -90q78 -33 176 -33q122 0 226 53q103 52 179 142q75 89 115 201q41 115 41 235q0 90 -26 164q-26 75 -79 132q-51 55 -129 89q-77 33 -175 33q-128 0 -234 -53q-103 -51 -178 -142q-74 -89 -114 -202 t-40 -232z" />
<glyph unicode="R" horiz-adv-x="1277" d="M51 0l256 1450h430q239 0 370 -99q130 -99 130 -276q0 -174 -103 -281q-103 -108 -278 -147l301 -647h-285l-274 618h-192l-107 -618h-248zM442 825h189q163 0 256 54q90 52 90 170q0 107 -76 147q-77 41 -203 41h-182z" />
<glyph unicode="S" horiz-adv-x="1175" d="M-18 199l204 141q40 -70 124 -118q82 -46 184 -46q52 0 101 12q47 11 90 40q39 26 66 72q25 43 25 110q0 50 -21 87q-20 36 -58 66q-35 28 -83 51t-100 41q-51 18 -124 56q-56 29 -103 74q-45 44 -71 106q-26 63 -26 145q0 108 47 193q48 87 121 141q76 57 176 87 q99 30 205 30q55 0 114 -12t113 -36q52 -23 102 -59q47 -33 81 -82l-184 -147q-40 65 -108 96t-144 31q-39 0 -86 -12q-45 -12 -87 -38q-40 -25 -67 -69q-27 -43 -27 -104q0 -77 55 -121q54 -43 146 -78q190 -69 293 -167q102 -97 102 -263q0 -125 -49 -213 q-49 -87 -129 -143t-180 -81q-102 -26 -203 -26q-77 0 -144 14q-74 15 -138 43q-61 26 -122 73q-54 41 -95 106z" />
<glyph unicode="T" horiz-adv-x="1091" d="M94 1229l39 221h1110l-39 -221h-426l-217 -1229h-252l215 1229h-430z" />
<glyph unicode="U" horiz-adv-x="1462" d="M123 416q0 19 2 57q1 26 8 59l162 918h252l-160 -907q-4 -22 -6 -47q-2 -32 -2 -47q0 -55 15 -101t50 -84q33 -36 90 -58t132 -22q99 0 168 32q65 30 110 83q43 51 66 116q21 61 34 128l160 907h254l-162 -918q-22 -129 -72 -234t-128 -179q-79 -75 -187 -115 q-109 -41 -247 -41q-124 0 -226 32t-170 91q-69 60 -106 142q-37 81 -37 188z" />
<glyph unicode="V" horiz-adv-x="1312" d="M139 1450h267l145 -1122h8l645 1122h285l-881 -1450h-233z" />
<glyph unicode="W" horiz-adv-x="2017" d="M145 1450h267l71 -1073h4l525 1073h262l112 -1073h5l501 1073h269l-703 -1450h-246l-133 1096h-4l-549 -1096h-245z" />
<glyph unicode="X" horiz-adv-x="1292" d="M-150 0l680 774l-294 676h278l201 -508l413 508h304l-607 -696l338 -754h-286l-236 575l-475 -575h-316z" />
<glyph unicode="Y" horiz-adv-x="1177" d="M86 1450h283l241 -614l486 614h307l-701 -821l-112 -629h-252l111 629z" />
<glyph unicode="Z" horiz-adv-x="1204" d="M-82 0l39 227l954 1002h-688l39 221h1018l-41 -227l-948 -998h794l-41 -225h-1126z" />
<glyph unicode="[" horiz-adv-x="655" d="M-63 -319l319 1818h391l-29 -158h-184l-264 -1503h184l-28 -157h-389z" />
<glyph unicode="\" horiz-adv-x="796" d="M6 1487l170 65l639 -1589l-170 -61z" />
<glyph unicode="]" horiz-adv-x="655" d="M-6 -319l26 157h185l266 1503h-184l26 158h392l-322 -1818h-389z" />
<glyph unicode="^" horiz-adv-x="1363" d="M141 702l457 748h168l457 -748h-242l-301 490l-297 -490h-242z" />
<glyph unicode="_" horiz-adv-x="1024" d="M0 -154h1024v-153h-1024v153z" />
<glyph unicode="`" horiz-adv-x="532" d="M31 1450h270l203 -295h-185z" />
<glyph unicode="a" horiz-adv-x="1103" d="M25 240q0 121 64 195q64 75 167 117q99 41 228 56q126 15 247 15q2 12 5 37q1 9 1 26q0 72 -46 102q-48 31 -136 31q-71 0 -148 -27q-76 -27 -137 -71l-92 162q80 57 192 93q106 34 220 34q64 0 138 -16q68 -15 123 -50q54 -35 87 -91q33 -57 33 -140q0 -9 -2 -45 q-1 -26 -6 -47l-72 -400q-10 -56 -18 -119q-7 -57 -7 -102h-221q0 56 12 117h-4q-114 -137 -319 -137q-52 0 -107 12t-100 42t-74 80q-28 49 -28 126zM256 279q0 -36 13 -59q13 -22 36 -38q20 -14 51 -20q28 -6 60 -6q55 0 103 18q47 18 84 50q35 31 60 74q22 38 33 91 l13 62h-29q-44 0 -144 -6q-73 -4 -138 -23q-62 -18 -102 -52t-40 -91z" />
<glyph unicode="b" horiz-adv-x="1306" d="M43 0l272 1548h242l-135 -723h4q61 87 152 136t202 49q92 0 171 -31q77 -30 131 -87q55 -58 84 -134q30 -78 30 -172q0 -128 -40 -238q-41 -111 -112 -193q-73 -83 -171 -131q-101 -49 -218 -49q-109 0 -206 50t-146 141h-4l-29 -166h-227zM365 426q0 -113 67 -184 q67 -72 182 -72q74 0 139 31q61 29 106 83q44 54 68 123q23 68 23 150q0 110 -62 182q-63 74 -179 74q-71 0 -136 -31q-60 -28 -109 -84q-45 -51 -73 -124q-26 -68 -26 -148z" />
<glyph unicode="c" horiz-adv-x="1007" d="M55 399q0 120 43 230q43 109 121 195q77 85 190 135q114 51 246 51q112 0 210 -40q101 -41 153 -126l-172 -139q-27 45 -82 76q-56 32 -121 32q-73 0 -140 -31q-62 -29 -111 -84q-45 -50 -73 -123q-26 -66 -26 -145q0 -54 14 -97q15 -46 45 -82q29 -35 78 -57t113 -22 q90 0 148 32q56 31 104 79l137 -140q-78 -78 -176 -124t-228 -46q-103 0 -193 31q-87 30 -150 87q-61 55 -96 134q-34 77 -34 174z" />
<glyph unicode="d" horiz-adv-x="1298" d="M55 399q0 128 40 238q41 111 112 193q74 85 171 132q99 48 218 48q136 0 218 -49t126 -136h4l123 723h242l-275 -1548h-227l24 156h-6q-61 -87 -151 -133q-94 -48 -203 -48q-92 0 -171 31q-77 30 -131 87q-55 58 -84 134q-30 78 -30 172zM301 428q0 -108 63 -182t179 -74 q70 0 135 31q60 28 109 84q45 51 73 124q27 70 27 148q0 111 -68 184q-68 72 -182 72q-73 0 -138 -31q-63 -30 -107 -83q-43 -52 -67 -122q-24 -71 -24 -151z" />
<glyph unicode="e" horiz-adv-x="1155" d="M55 408q0 128 43 236q44 110 120 192q75 80 182 128q104 46 231 46q85 0 163 -25q73 -23 130 -74q56 -50 86 -123t30 -172q0 -32 -6 -91q-6 -58 -18 -109h-729q-2 -14 -2 -23q0 -51 19 -90q20 -41 54 -71q32 -28 82 -47q44 -17 103 -17q93 0 160 35q70 36 120 94 l138 -129q-183 -197 -445 -197q-100 0 -184 30q-86 31 -146 85q-62 56 -96 136q-35 82 -35 186zM309 588h510q1 10 3 26q1 8 1 25q0 80 -56 135t-159 55q-64 0 -114 -22q-55 -24 -90 -58q-39 -38 -62 -79q-26 -48 -33 -82z" />
<glyph unicode="f" horiz-adv-x="661" d="M31 791l32 192h183l28 150q15 84 44 160q30 80 82 142q52 63 130 100q79 38 189 38q75 0 121 -14l-52 -205q-14 5 -37 10q-17 4 -46 4q-51 0 -84 -20q-37 -22 -57 -54q-23 -36 -35 -72q-13 -39 -19 -77l-29 -162h232l-35 -192h-227l-140 -791h-233l139 791h-186z" />
<glyph unicode="g" horiz-adv-x="1294" d="M-35 -315l160 174q57 -67 141 -105q83 -37 178 -37q89 0 153 26q60 24 105 71t68 107q25 67 41 136l16 78h-4q-52 -69 -140 -111q-87 -42 -198 -42q-95 0 -171 30q-77 30 -131 86t-84 133q-29 75 -29 172q0 126 40 236q42 115 111 194q73 84 171 130q100 47 218 47 q135 0 217 -49t121 -127h6l25 149h229l-155 -899q-23 -130 -66 -236t-115 -182q-72 -77 -178 -117q-108 -41 -256 -41q-61 0 -127 12q-69 13 -129 34q-65 23 -120 55q-57 33 -97 76zM315 432q0 -108 63 -182t179 -74q70 0 135 31q62 29 110 84q43 48 72 123q27 69 27 147 q0 113 -67 184q-68 72 -183 72q-73 0 -138 -31q-61 -29 -106 -83t-68 -121q-24 -69 -24 -150z" />
<glyph unicode="h" horiz-adv-x="1196" d="M43 0l272 1548h242l-125 -704h4q40 65 117 115q79 51 186 51q81 0 143 -25q58 -23 100 -65q39 -39 59 -98q20 -58 20 -117q0 -50 -8 -93l-109 -612h-239l94 541q3 14 7 49q3 24 3 49q0 66 -35 116t-127 50q-57 0 -105 -23q-45 -22 -80 -60q-34 -36 -55 -87 q-23 -55 -30 -100l-94 -535h-240z" />
<glyph unicode="i" horiz-adv-x="546" d="M43 0l172 983h242l-174 -983h-240zM248 1313q0 65 45 107t104 42t100 -38q40 -37 40 -103q0 -59 -42 -104q-43 -46 -104 -46q-60 0 -101 37q-42 38 -42 105z" />
<glyph unicode="j" horiz-adv-x="546" d="M-250 -479l47 205q22 -6 34 -7q24 -2 32 -2q42 0 71 17q31 18 48 45t28 66q13 47 19 81l186 1057h242l-185 -1049q-16 -84 -42 -163q-26 -81 -71 -137t-119 -92q-71 -34 -181 -34q-28 0 -61 5q-40 6 -48 8zM248 1313q0 65 45 107t104 42t100 -38q40 -37 40 -103 q0 -59 -42 -104q-43 -46 -104 -46q-60 0 -101 37q-42 38 -42 105z" />
<glyph unicode="k" horiz-adv-x="1067" d="M43 0l272 1548h242l-174 -981h6l445 416h315l-522 -457l358 -526h-297l-309 504h-6l-90 -504h-240z" />
<glyph unicode="l" horiz-adv-x="546" d="M43 0l272 1548h242l-274 -1548h-240z" />
<glyph unicode="m" horiz-adv-x="1830" d="M43 0l135 772q14 73 18 100q8 52 13 111h225q-1 -13 -8 -72l-10 -82h4q45 68 118 125q73 56 185 56q122 0 198 -55q74 -54 97 -138q63 89 149 141q87 52 199 52q83 0 147 -25q62 -24 103 -65q40 -40 60 -98t20 -117q0 -50 -8 -93l-109 -612h-240l95 541q3 14 7 49 q3 24 3 49q0 31 -8 63q-7 29 -27 54q-17 21 -50 37q-29 14 -79 14q-55 0 -102 -25q-44 -23 -79 -63q-34 -38 -55 -87q-20 -46 -28 -95l-94 -537h-242l104 594q7 35 7 55q0 71 -37 114q-38 44 -115 44q-55 0 -99 -24q-47 -26 -77 -60q-33 -38 -54 -85q-23 -54 -30 -97 l-96 -541h-240z" />
<glyph unicode="n" horiz-adv-x="1196" d="M43 0l135 772q14 73 18 100q8 52 13 111h225q-1 -15 -8 -71q-2 -15 -5 -43t-5 -40h4q52 82 130 130q82 51 189 51q81 0 143 -25q58 -23 100 -65q39 -39 59 -98q20 -58 20 -117q0 -50 -8 -93l-109 -612h-239l94 541q3 14 7 49q3 24 3 49q0 66 -35 116t-127 50 q-58 0 -104 -23q-44 -22 -79 -60q-33 -35 -55 -85q-23 -51 -30 -96l-96 -541h-240z" />
<glyph unicode="o" horiz-adv-x="1236" d="M55 401q0 121 42 231q42 109 120 193q79 85 187 134q113 51 245 51q102 0 192 -31q87 -30 150 -87q66 -60 100 -135q35 -77 35 -173q0 -123 -42 -234t-119 -194t-189 -133t-246 -50q-99 0 -189 31q-87 30 -151 88q-63 57 -99 135t-36 174zM293 426q0 -111 65 -182 q66 -72 185 -72q76 0 141 31q63 30 108 84q44 53 68 124q25 73 25 148q0 109 -68 182q-67 72 -184 72q-76 0 -140 -32q-62 -31 -107 -85q-45 -55 -69 -123q-24 -69 -24 -147z" />
<glyph unicode="p" horiz-adv-x="1300" d="M-49 -492l260 1475h227l-24 -158h6q61 87 151 133q94 48 203 48q92 0 171 -31q77 -30 131 -87q55 -58 84 -134q30 -78 30 -172q0 -128 -40 -238q-41 -111 -112 -193q-74 -85 -171 -132q-99 -48 -218 -48q-136 0 -218 49t-126 136h-4l-108 -648h-242zM358 422 q0 -111 68 -184q68 -72 182 -72q73 0 138 31q63 30 107 83q45 54 68 122t23 151q0 110 -62 182q-63 74 -180 74q-70 0 -135 -31q-60 -28 -109 -84q-45 -51 -73 -124q-27 -70 -27 -148z" />
<glyph unicode="q" horiz-adv-x="1294" d="M55 399q0 128 40 238q41 111 112 193q74 85 171 132q99 48 218 48q109 0 207 -52q95 -50 145 -143h4l29 168h227l-258 -1475h-241l120 648h-4q-61 -87 -151 -133q-94 -48 -203 -48q-92 0 -171 31q-77 30 -131 87q-55 58 -84 134q-30 78 -30 172zM301 428q0 -108 63 -182 t179 -74q70 0 135 31q60 28 109 84q45 51 73 124q27 70 27 148q0 111 -68 184q-68 72 -182 72q-73 0 -138 -31q-63 -30 -107 -83q-43 -52 -67 -122q-24 -71 -24 -151z" />
<glyph unicode="r" horiz-adv-x="694" d="M37 0l137 772q10 51 17 100q10 71 14 111h225q0 -3 -2 -31q-1 -12 -5 -45l-6 -48l-5 -40h4q50 84 121 138q70 53 168 53q19 0 30 -1q21 -2 29 -5l-33 -224q-25 7 -40 8q-2 0 -14.5 1.5t-19.5 1.5q-83 0 -137 -31q-53 -30 -86 -74q-32 -42 -47 -88q-12 -36 -18 -72 l-93 -526h-239z" />
<glyph unicode="s" horiz-adv-x="909" d="M-49 160l186 123q30 -60 91 -92q59 -31 134 -31q86 0 135 33q50 33 50 90q0 53 -40 78q-45 28 -128 55q-75 24 -122 46q-54 25 -87 55t-52 73q-18 40 -18 96q0 71 33 131q33 59 90 103q54 41 135 66q78 24 170 24q115 0 208 -42q95 -43 147 -128l-187 -111q-30 45 -69 69 q-43 27 -117 27q-32 0 -63 -6q-34 -6 -56 -19q-26 -14 -40 -36q-15 -22 -15 -55q0 -48 40 -70q41 -23 118 -45q135 -39 213 -106q75 -65 75 -189q0 -82 -34 -144q-33 -61 -94 -106q-57 -43 -135 -64q-80 -22 -163 -22q-161 0 -257 56q-97 57 -148 141z" />
<glyph unicode="t" horiz-adv-x="696" d="M39 788l35 195h170l49 287h237l-49 -287h221l-34 -195h-217l-86 -462q-7 -35 -7 -58q0 -52 32 -73t85 -21q27 0 48 4q26 5 44 10l-14 -182q-27 -11 -73 -19q-39 -7 -77 -7q-156 0 -221 62t-65 165q0 27 3 62t9 63l84 456h-174z" />
<glyph unicode="u" horiz-adv-x="1196" d="M72 279q0 49 8 92l108 612h240l-94 -541q-3 -14 -7 -49q-3 -24 -3 -49q0 -67 34 -116q35 -50 127 -50q56 0 104 23q45 22 80 60q33 35 55 85q23 51 30 96l96 541h240l-136 -772q-10 -51 -17 -100q-8 -52 -13 -111h-226q0 7 1.5 17t4 26t3.5 28q2 15 5 43t5 40h-4 q-52 -82 -130 -130q-82 -51 -190 -51q-79 0 -142 25q-58 23 -100 65q-40 40 -60 98q-19 56 -19 118z" />
<glyph unicode="v" horiz-adv-x="1028" d="M59 983h252l115 -721h4l410 721h254l-584 -983h-258z" />
<glyph unicode="w" horiz-adv-x="1607" d="M59 983h252l68 -707h4l352 707h252l80 -707h4l356 707h252l-534 -983h-246l-88 694h-4l-367 -694h-245z" />
<glyph unicode="x" horiz-adv-x="1050" d="M-150 0l506 522l-264 461h264l160 -307l272 307h295l-450 -473l291 -510h-273l-182 352l-313 -352h-306z" />
<glyph unicode="y" horiz-adv-x="1036" d="M-86 -477l31 209q30 -10 46 -12q24 -3 44 -3q67 0 105 38t83 116l74 127l-221 985h258l127 -721h4l393 721h254l-696 -1196q-40 -70 -74 -118q-37 -51 -81 -88q-43 -35 -97 -54q-55 -19 -125 -19q-21 0 -63 4q-29 3 -62 11z" />
<glyph unicode="z" horiz-adv-x="983" d="M-41 0l37 211l641 580h-500l33 192h793l-37 -211l-637 -575h549l-35 -197h-844z" />
<glyph unicode="{" horiz-adv-x="655" d="M-23 502l31 176q22 0 49 6q28 6 52 24q27 20 43 46q19 30 26 71l70 404q12 68 43 121q29 50 73 84q41 32 92 49q48 16 101 16h148l-29 -170h-113q-61 0 -84 -39q-22 -39 -30 -86l-68 -383q-11 -62 -40 -103q-30 -42 -66 -69q-35 -26 -72 -41q-36 -14 -62 -16v-4 q18 -1 49 -11q29 -9 55 -29q25 -19 43 -54q17 -33 17 -88q0 -30 -6 -60l-66 -371q-3 -15 -5 -45q-1 -21 5 -40q5 -14 22 -28q15 -12 46 -12h113l-31 -169h-147q-92 0 -156 50t-64 156q0 24 7 64l69 389q8 50 0 80q-8 31 -26 49q-19 19 -42 26q-22 7 -47 7z" />
<glyph unicode="|" horiz-adv-x="454" d="M123 -512v2048h209v-2048h-209z" />
<glyph unicode="}" horiz-adv-x="655" d="M-66 -319l31 169h113q60 0 82 39t30 86l66 371q12 69 43 118q28 44 67 73q32 24 71 37q38 13 61 14l2 4q-27 2 -57 16q-32 15 -58 41q-25 25 -41 69q-15 41 -4 103l68 383q3 15 5 45q1 21 -5 40q-6 18 -23 29q-15 11 -47 11h-111l29 170h150q89 0 153 -50t64 -157 q0 -24 -7 -63l-69 -404q-7 -43 0 -71q7 -27 26 -46q18 -18 42 -24t47 -6l-31 -176q-24 0 -48 -7q-27 -8 -51 -26t-44 -49q-19 -30 -27 -80l-70 -389q-12 -68 -43 -121q-29 -50 -73 -84q-41 -32 -91 -49q-48 -16 -100 -16h-150z" />
<glyph unicode="~" horiz-adv-x="1363" d="M147 596q77 125 155 168q79 43 159 43q77 0 129 -21q59 -23 117 -61q41 -27 70 -43t47 -23q20 -7 36 -9q11 -1 39 -1q50 0 88 34q40 35 72 95l158 -133q-72 -119 -152 -164q-79 -45 -162 -45q-65 0 -123 20q-61 21 -125 62q-56 33 -69 40q-30 16 -50 23q-21 7 -38 9 q-22 2 -33 2q-42 0 -82 -29q-39 -29 -78 -100z" />
<glyph unicode="&#xa3;" d="M25 0l36 215h201l78 432h-201l29 170h197l30 170q16 82 48 164q34 86 98 163q63 75 160 124t239 49q109 0 196 -32q85 -31 142 -91l-148 -166q-33 41 -86 65q-50 23 -118 23q-74 0 -125 -30q-53 -31 -84 -75q-33 -46 -51 -101q-21 -63 -27 -103l-29 -160h340l-30 -170 h-336l-76 -432h543l-39 -215h-987z" />
<glyph unicode="&#xa4;" horiz-adv-x="1884" d="M291 119l194 196q-92 128 -92 318q0 179 88 307l-190 190l145 144l193 -191q70 48 144 70q83 25 171 25q177 0 313 -93l95 95l94 94l145 -144l-184 -184q44 -64 68 -141q24 -78 24 -172q0 -192 -98 -324l190 -190q-22 -22 -70 -72q-40 -41 -73 -72l-197 195 q-133 -88 -307 -88q-164 0 -309 92q-33 -34 -99 -100l-102 -99q-22 22 -70 72q-40 41 -73 72zM647 633q0 -62 22 -122q20 -55 60 -98q41 -44 93 -67q54 -24 122 -24t123 24q54 23 93 67q41 46 60 98q21 57 21 122q0 61 -21 118q-20 54 -61 98q-39 42 -93 66q-56 25 -122 25 t-122 -25q-54 -24 -93 -66q-40 -43 -60 -98q-22 -60 -22 -118z" />
<glyph unicode="&#xa5;" d="M90 319l27 158h360l27 160h-359l27 158h303l-291 655h267l217 -592l407 592h271l-500 -655h287l-29 -158h-363l-28 -160h362l-26 -158h-359l-55 -319h-236l56 319h-365z" />
<glyph unicode="&#xa6;" horiz-adv-x="454" d="M123 -358v716h209v-716h-209zM123 666v716h209v-716h-209z" />
<glyph unicode="&#xa7;" d="M25 -63l204 116q16 -36 44 -60q29 -24 66 -43q36 -18 77 -27q40 -9 78 -9q36 0 73 6q36 6 67 23q29 16 49 45q19 28 19 71q0 45 -16 74q-18 32 -50 56q-38 28 -86 50q-43 20 -122 54q-56 24 -99 49q-45 26 -80 64q-34 37 -53 84q-20 49 -20 114q0 60 22 112q21 48 56 90 q32 38 79 67q43 27 89 42q-32 24 -60 73t-28 120q0 101 45 173q46 74 114 118q69 45 151 66q86 22 159 22q126 0 233 -43q109 -44 170 -129l-182 -141q-40 59 -102 88q-60 28 -134 28q-32 0 -66 -7q-36 -8 -67 -26q-29 -17 -51 -49q-20 -29 -20 -75q0 -37 13 -60 q14 -26 42 -46q27 -20 73 -42q20 -10 103 -47q61 -25 109 -54q52 -31 89 -69q39 -40 59 -91q22 -55 22 -124q0 -62 -20 -113q-19 -48 -51 -86q-29 -35 -74 -62q-43 -26 -85 -42q41 -35 68 -86q26 -49 26 -109q0 -108 -42 -183q-43 -76 -107 -123q-66 -48 -149 -69 q-86 -22 -162 -22q-69 0 -136 14q-74 15 -138 43q-69 30 -120 72q-52 43 -79 103zM399 645q0 -71 41 -106q43 -37 97 -60l198 -88q137 41 137 168q0 72 -43 112q-42 39 -100 68l-172 84q-77 -17 -117 -67q-41 -52 -41 -111z" />
<glyph unicode="&#xa8;" horiz-adv-x="532" d="M43 1315q0 65 43 105t102 40q60 0 98 -36t38 -101q0 -59 -40 -102t-102 -43q-60 0 -99 35q-40 36 -40 102zM449 1315q0 65 43 105t102 40q60 0 97 -36q38 -36 38 -101q0 -59 -40 -102t-101 -43t-100 35t-39 102z" />
<glyph unicode="&#xa9;" horiz-adv-x="1638" d="M41 723q0 162 61 302q60 138 167 245q105 105 248 165t304 60q160 0 301 -60q143 -61 247 -165q107 -107 167 -245q61 -140 61 -302q0 -160 -61 -300q-60 -138 -167 -245q-103 -103 -247 -164q-139 -59 -301 -59q-164 0 -304 59q-145 61 -248 164q-107 107 -167 245 q-61 140 -61 300zM164 723q0 -137 52 -254q53 -120 141 -208q89 -89 209 -140t255 -51t254 51t208 140t140 208q52 121 52 254t-52 255q-51 120 -140 209q-88 88 -208 141q-117 52 -254 52q-136 0 -255 -52q-121 -53 -209 -141t-141 -209q-52 -119 -52 -255zM385 719 q0 108 37 192q39 89 101 145q64 58 151 90t182 32q99 0 185 -37q89 -38 141 -105l-129 -129q-29 38 -83 62t-114 24q-63 0 -110 -22q-46 -21 -79 -61q-33 -39 -49 -87t-16 -100q0 -53 18 -103q20 -56 51 -89q34 -37 84 -61q49 -24 115 -24q54 0 106 21q54 22 85 57l119 -139 q-51 -58 -140 -91q-87 -32 -184 -32q-98 0 -183 30q-86 30 -150 88t-101 143q-37 84 -37 196z" />
<glyph unicode="&#xab;" horiz-adv-x="1060" d="M43 506l391 459l137 -111l-305 -362l174 -359l-164 -94zM492 506l391 459l137 -111l-305 -362l174 -359l-164 -94z" />
<glyph unicode="&#xac;" horiz-adv-x="1363" d="M127 700v209h1110v-608h-209v399h-901z" />
<glyph unicode="&#xad;" horiz-adv-x="655" d="M43 401l37 205h489l-37 -205h-489z" />
<glyph unicode="&#xae;" horiz-adv-x="1228" d="M229 1010q0 97 37 181q36 82 101 147q62 62 149 100q84 37 182 37t182 -37t147 -100q61 -62 99 -147q37 -84 37 -181q0 -98 -37 -181q-38 -86 -99 -145q-63 -62 -147 -97q-86 -36 -182 -36t-182 36q-87 37 -149 97q-64 63 -101 145q-37 83 -37 181zM303 1010 q0 -78 31 -152q30 -71 85 -125q57 -55 126 -84q74 -31 153 -31q80 0 153 31q70 30 124 84q55 55 84 125q31 74 31 152q0 79 -31 153q-29 69 -84 126q-53 55 -124 85q-73 31 -153 31q-79 0 -153 -31q-70 -29 -126 -85t-85 -126q-31 -74 -31 -153zM489 754v532h230q36 0 78 -8 q36 -7 70 -28t52 -52q19 -32 19 -80q0 -54 -30 -91t-77 -54l136 -219h-170l-103 196h-59v-196h-146zM635 1057h78q30 0 50 16q21 17 21 43q0 28 -23 39q-24 12 -48 12h-78v-110z" />
<glyph unicode="&#xb0;" horiz-adv-x="819" d="M152 1147q0 68 25 127q24 57 71 104t104 71q61 26 127 26t127 -26q59 -25 105 -71q45 -45 70 -104q26 -61 26 -127t-26 -127t-70 -105t-105 -70t-127 -26t-127 26q-59 25 -104 70q-46 46 -71 105t-25 127zM311 1147q0 -70 49 -119t119 -49t119 49t49 119t-49 119t-119 49 t-119 -49t-49 -119z" />
<glyph unicode="&#xb1;" horiz-adv-x="1363" d="M164 66v208h1036v-208h-1036zM164 674v209h422v293h196v-293h418v-209h-418v-293h-196v293h-422z" />
<glyph unicode="&#xb2;" horiz-adv-x="819" d="M170 918l29 159l376 309q64 53 90 95q27 43 27 84q0 52 -29 72q-31 22 -81 22q-56 0 -90 -31t-52 -88l-161 45q40 112 123 169q81 56 188 56q123 0 198 -62q76 -63 76 -173q0 -52 -11 -89q-13 -43 -35 -75q-26 -37 -61 -71q-31 -30 -91 -76l-236 -185h342l-31 -161h-571z " />
<glyph unicode="&#xb3;" horiz-adv-x="819" d="M166 1102l166 49q16 -53 51 -73q34 -19 80 -19q67 0 104 34t37 89q0 60 -44 90q-45 31 -116 31h-47l23 137h47q93 0 133 37q41 38 41 98q0 41 -27 63q-28 23 -65 23q-41 0 -76 -19q-33 -18 -63 -71l-136 78q51 86 124 124q71 37 161 37q65 0 112 -19q49 -20 81 -52 q33 -33 48 -74t15 -84q0 -83 -47 -138q-47 -54 -117 -71q64 -17 98 -66q33 -47 33 -110q0 -75 -25 -129q-25 -53 -70 -91q-43 -36 -102 -54q-62 -19 -124 -19q-117 0 -191 53q-73 52 -104 146z" />
<glyph unicode="&#xb5;" horiz-adv-x="1228" d="M-49 -492l260 1475h242l-88 -502q-12 -74 -13 -79q-4 -31 -4 -66q0 -62 36 -110t122 -48q58 0 106 23t81 59q34 36 55 84q18 40 30 98l96 541h242l-129 -727q-8 -47 7 -65q14 -17 50 -17q13 0 29 2q12 2 27 6l-15 -184q-32 -9 -71 -14q-31 -4 -66 -4q-108 0 -150 50 t-42 124h-4q-20 -33 -55 -70q-31 -33 -69 -57q-36 -23 -82 -39q-44 -15 -89 -15q-63 0 -106 21q-44 21 -60 55h-4l-97 -541h-239z" />
<glyph unicode="&#xb6;" horiz-adv-x="1228" d="M135 999q0 60 22 143q20 76 82 147q59 68 168 115q107 46 279 46h549l-301 -1708h-182l276 1563h-221l-277 -1563h-182l168 948q-179 0 -280 86t-101 223z" />
<glyph unicode="&#xb7;" horiz-adv-x="532" d="M111 600q0 68 47 112t108 44q63 0 104 -40q42 -40 42 -108q0 -62 -44 -109q-43 -46 -108 -46q-62 0 -105 37q-44 38 -44 110z" />
<glyph unicode="&#xbb;" horiz-adv-x="1060" d="M-2 150l305 362l-174 358l164 95l233 -467l-391 -459zM451 150l305 362l-174 358l163 95l234 -467l-391 -459z" />
<glyph unicode="&#xbd;" horiz-adv-x="1843" d="M195 1225l317 225h166l-154 -879h-188l117 654l-174 -125zM274 12l1121 1504l127 -80l-1121 -1504zM1014 0l28 160l377 309q63 52 89 94q28 45 28 84q0 52 -30 73t-81 21q-57 0 -90 -30t-51 -88l-162 45q40 111 124 169q81 56 188 56q122 0 198 -63t76 -173 q0 -52 -11 -89q-12 -41 -35 -74q-26 -37 -61 -71q-32 -31 -92 -77l-235 -184h342l-31 -162h-571z" />
<glyph unicode="&#x2000;" horiz-adv-x="905" />
<glyph unicode="&#x2001;" horiz-adv-x="1810" />
<glyph unicode="&#x2002;" horiz-adv-x="905" />
<glyph unicode="&#x2003;" horiz-adv-x="1810" />
<glyph unicode="&#x2004;" horiz-adv-x="603" />
<glyph unicode="&#x2005;" horiz-adv-x="452" />
<glyph unicode="&#x2006;" horiz-adv-x="301" />
<glyph unicode="&#x2007;" horiz-adv-x="301" />
<glyph unicode="&#x2008;" horiz-adv-x="226" />
<glyph unicode="&#x2009;" horiz-adv-x="362" />
<glyph unicode="&#x200a;" horiz-adv-x="100" />
<glyph unicode="&#x2010;" horiz-adv-x="655" d="M43 401l37 205h489l-37 -205h-489z" />
<glyph unicode="&#x2011;" horiz-adv-x="655" d="M43 401l37 205h489l-37 -205h-489z" />
<glyph unicode="&#x2012;" horiz-adv-x="655" d="M43 401l37 205h489l-37 -205h-489z" />
<glyph unicode="&#x2013;" horiz-adv-x="819" d="M45 410l33 188h696l-33 -188h-696z" />
<glyph unicode="&#x2014;" horiz-adv-x="1228" d="M45 410l33 188h1106l-33 -188h-1106z" />
<glyph unicode="&#x2018;" horiz-adv-x="548" d="M137 911l269 539h200l-237 -539h-232z" />
<glyph unicode="&#x2019;" horiz-adv-x="548" d="M137 911l238 539h231l-268 -539h-201z" />
<glyph unicode="&#x201a;" horiz-adv-x="548" d="M-70 -260l238 539h233l-270 -539h-201z" />
<glyph unicode="&#x201c;" horiz-adv-x="944" d="M137 911l269 539h200l-237 -539h-232zM532 911l269 539h203l-238 -539h-234z" />
<glyph unicode="&#x201d;" horiz-adv-x="944" d="M137 911l238 539h231l-268 -539h-201zM532 911l238 539h234l-269 -539h-203z" />
<glyph unicode="&#x201e;" horiz-adv-x="944" d="M-70 -260l238 539h233l-270 -539h-201zM326 -260l237 539h234l-269 -539h-202z" />
<glyph unicode="&#x2022;" horiz-adv-x="1024" d="M150 725q0 76 28 141t78 115t115 78t141 28t141 -28t115 -78t78 -115t28 -141t-28 -141t-78 -115t-115 -78q-67 -29 -141 -29t-141 29q-65 28 -115 78t-78 115t-28 141z" />
<glyph unicode="&#x2026;" horiz-adv-x="2048" d="M111 139q0 68 47 112t108 44q63 0 104 -40q42 -41 42 -108q0 -62 -44 -109q-43 -46 -108 -46q-61 0 -105 38t-44 109zM795 139q0 68 47 112t108 44q63 0 104 -40q42 -41 42 -108q0 -62 -44 -109q-43 -46 -108 -46q-61 0 -105 38t-44 109zM1479 139q0 68 47 112t108 44 q63 0 104 -40q42 -41 42 -108q0 -62 -44 -109q-43 -46 -108 -46q-61 0 -105 38t-44 109z" />
<glyph unicode="&#x202f;" horiz-adv-x="362" />
<glyph unicode="&#x2039;" horiz-adv-x="608" d="M43 508l391 457l133 -103l-299 -354l174 -358l-170 -105z" />
<glyph unicode="&#x203a;" horiz-adv-x="608" d="M-2 150l305 362l-174 358l164 95l233 -467l-391 -459z" />
<glyph unicode="&#x205f;" horiz-adv-x="452" />
<glyph unicode="&#x20ac;" d="M29 455l88 176h92q1 24 10 81q6 37 25 107h-148l92 176h107q41 105 104 190q65 88 152 156q87 69 193 107q108 39 235 39q96 0 182 -20q83 -19 133 -48l-90 -198q-43 28 -107 43q-60 14 -141 14q-130 0 -239 -74q-108 -73 -174 -209h567l-88 -176h-543q-6 -17 -12 -44 q-8 -34 -11 -52q-6 -37 -7 -51q0 -6 -1.5 -20.5t-1.5 -20.5h512l-86 -176h-426q4 -58 32 -112q25 -49 75 -91q47 -40 113 -62q65 -22 145 -22q79 0 137 19q52 17 125 55l49 -191q-62 -39 -142 -63q-84 -25 -192 -25q-139 0 -244 39t-176 107t-110 156t-45 190h-184z" />
<glyph unicode="&#x2122;" horiz-adv-x="2045" d="M256 1266v184h709v-184h-250v-660h-209v660h-250zM1126 606v844h291l201 -549l201 549h290v-844h-208v549h-5l-206 -549h-144l-207 549h-4v-549h-209z" />
<glyph unicode="&#x25fc;" horiz-adv-x="983" d="M0 0v983h983v-983h-983z" />
</font>
</defs>
</svg>
